<?xml version="1.0" encoding="utf-8"?>
<svg version="1.1" id="Layer_2" xmlns="http://www.w3.org/2000/svg" xmlns:xlink="http://www.w3.org/1999/xlink" x="0px" y="0px"
	 viewBox="0 0 20 20" style="enable-background:new 0 0 20 20;" xml:space="preserve">
<style type="text/css">
	.st0{fill:#19305A;}
	.st1{fill:#FFFFFF;}
</style>
<circle class="st0" cx="10" cy="10" r="9.5"/>
<path class="st1" d="M10.9,5.4h-2c-0.3,0-0.5-0.2-0.5-0.5v-2c0-0.3,0.2-0.5,0.5-0.5h2c0.3,0,0.5,0.2,0.5,0.5v2
	C11.5,5.2,11.2,5.4,10.9,5.4z"/>
<path class="st1" d="M13.2,14v1.9c0,0.3-0.2,0.5-0.5,0.5H7.1c-0.3,0-0.5-0.2-0.5-0.5V14c0-0.3,0.2-0.5,0.5-0.5h1.3V9.7H7.1
	c-0.3,0-0.5-0.2-0.5-0.5V7.1c0-0.3,0.2-0.5,0.5-0.5H11c0.3,0,0.5,0.2,0.5,0.5v6.4h1.3C13,13.5,13.2,13.8,13.2,14z"/>
</svg>
