<?xml version="1.0" encoding="utf-8"?>
<svg version="1.1" id="Layer_1" xmlns="http://www.w3.org/2000/svg" xmlns:xlink="http://www.w3.org/1999/xlink" x="0px" y="0px"
	 viewBox="0 0 255.81 124.87" style="enable-background:new 0 0 255.81 124.87;" xml:space="preserve">
<path d="M93.5,197.72h-7.38v-0.75C88.5,197.46,90.97,197.72,93.5,197.72z"/>
<path d="M235.48,88.64c-3.79-7-11.97-11.84-21.46-11.84c-0.65,0-1.3,0.02-1.93,0.08c-1.29-1.72-2.85-3.27-4.64-4.61
	c-2.45-15.31-17.13-27.09-34.89-27.09c-2.96,0-5.83,0.33-8.58,0.95c-2.01-3.99-4.88-7.41-8.36-9.97
	c-1.54-9.72-10.62-17.23-21.71-17.5C128.48,7.61,117.1,0,103.95,0C88.03,0,74.71,11.16,71.39,26.09c-0.27-0.01-0.53-0.01-0.8-0.01
	c-16.3,0-30.05,10.94-34.31,25.87C16.22,52.05,0,68.34,0,88.41c0,17.6,12.48,32.3,29.08,35.71c2.38,0.49,4.85,0.75,7.38,0.75h183.63
	v-1.05c2.78,0.68,5.78,1.05,8.9,1.05c14.81,0,26.82-8.23,26.82-18.39C255.81,97.86,247.16,90.62,235.48,88.64z M125.81,64.99v49.09
	h-39.8V64.99H64.43l41.49-34.71l41.47,34.71H125.81z"/>
</svg>
